# xmcd CD database file
#
# Track frame offsets:
#	150
#	36510
#	51010
#	71412
#	89878
#	121313
#	143685
#	163682
#	183885
#	201420
#
# Disc length: 3090 seconds
#
# Revision: 0
# Processed by: cddbd v1.5.2PL0 Copyright (c) Steve Scherf et al.
# Submitted via: CDex 1.51
#
DISCID=920c100a
DTITLE=Agita Rando - Agita Rando Trio feat. Stefan Weeke and Christoph Schlemmer
DYEAR=2012
DGENRE=Jazz
TTITLE0=Movement
TTITLE1=Inventio
TTITLE2=Ballad in A-Flat
TTITLE3=Blackbird
TTITLE4=Leave
TTITLE5=Morning Blues
TTITLE6=Hast Du ein G für mich?
TTITLE7=A Too Long Winter I
TTITLE8=A Too Long Winter II
TTITLE9=Drive
EXTD=YEAR: 2012
EXTT0=
EXTT1=
EXTT2=
EXTT3=
EXTT4=
EXTT5=
EXTT6=
EXTT7=
EXTT8=
EXTT9=
PLAYORDER=
